<?xml version="1.0" encoding="UTF-8"?>
<svg xmlns="http://www.w3.org/2000/svg" xmlns:xlink="http://www.w3.org/1999/xlink" width="48px" height="48px" viewBox="0 0 48 48" version="1.1">
<g id="surface1">
<path style=" stroke:none;fill-rule:nonzero;fill:rgb(0%,0%,0%);fill-opacity:1;" d="M 46.855469 8.152344 L 12.34375 8.152344 L 12.34375 6.246094 C 12.34375 5.617188 11.832031 5.105469 11.199219 5.105469 L 5.714844 5.105469 C 5.082031 5.105469 4.570312 5.617188 4.570312 6.246094 L 4.570312 8.152344 L 1.144531 8.152344 C 0.511719 8.152344 0 8.664062 0 9.296875 L 0 41.753906 C 0 42.382812 0.511719 42.894531 1.144531 42.894531 L 46.855469 42.894531 C 47.488281 42.894531 48 42.382812 48 41.753906 L 48 9.296875 C 48 8.664062 47.488281 8.152344 46.855469 8.152344 Z M 6.855469 7.390625 L 10.058594 7.390625 L 10.058594 8.152344 L 6.855469 8.152344 Z M 45.714844 40.609375 L 2.285156 40.609375 L 2.285156 10.4375 C 3.96875 10.4375 43.714844 10.4375 45.714844 10.4375 Z M 45.714844 40.609375 "/>
<path style=" stroke:none;fill-rule:nonzero;fill:rgb(0%,0%,0%);fill-opacity:1;" d="M 24 34.820312 C 29.503906 34.820312 33.980469 30.339844 33.980469 24.839844 C 33.980469 19.335938 29.503906 14.855469 24 14.855469 C 18.496094 14.855469 14.019531 19.335938 14.019531 24.839844 C 14.019531 30.339844 18.496094 34.820312 24 34.820312 Z M 24 17.144531 C 28.242188 17.144531 31.695312 20.59375 31.695312 24.839844 C 31.695312 29.082031 28.242188 32.535156 24 32.535156 C 19.757812 32.535156 16.304688 29.082031 16.304688 24.839844 C 16.304688 20.59375 19.757812 17.144531 24 17.144531 Z M 24 17.144531 "/>
<path style=" stroke:none;fill-rule:nonzero;fill:rgb(0%,0%,0%);fill-opacity:1;" d="M 24 31.007812 C 27.402344 31.007812 30.171875 28.242188 30.171875 24.839844 C 30.171875 21.433594 27.402344 18.667969 24 18.667969 C 20.597656 18.667969 17.828125 21.433594 17.828125 24.839844 C 17.828125 28.242188 20.597656 31.007812 24 31.007812 Z M 24 20.953125 C 26.144531 20.953125 27.886719 22.695312 27.886719 24.839844 C 27.886719 26.980469 26.144531 28.722656 24 28.722656 C 21.855469 28.722656 20.113281 26.980469 20.113281 24.839844 C 20.113281 22.695312 21.855469 20.953125 24 20.953125 Z M 24 20.953125 "/>
<path style=" stroke:none;fill-rule:nonzero;fill:rgb(0%,0%,0%);fill-opacity:1;" d="M 37.410156 19.886719 L 42.285156 19.886719 C 42.917969 19.886719 43.429688 19.375 43.429688 18.742188 L 43.429688 13.867188 C 43.429688 13.234375 42.917969 12.722656 42.285156 12.722656 L 37.410156 12.722656 C 36.777344 12.722656 36.265625 13.234375 36.265625 13.867188 L 36.265625 18.742188 C 36.265625 19.375 36.777344 19.886719 37.410156 19.886719 Z M 38.550781 15.007812 L 41.144531 15.007812 L 41.144531 17.601562 L 38.550781 17.601562 Z M 38.550781 15.007812 "/>
<path style=" stroke:none;fill-rule:nonzero;fill:rgb(0%,0%,0%);fill-opacity:1;" d="M 5.867188 35.125 L 10.285156 35.125 C 10.917969 35.125 11.429688 34.613281 11.429688 33.980469 C 11.429688 33.351562 10.917969 32.839844 10.285156 32.839844 L 5.867188 32.839844 C 5.234375 32.839844 4.722656 33.351562 4.722656 33.980469 C 4.722656 34.613281 5.234375 35.125 5.867188 35.125 Z M 5.867188 35.125 "/>
<path style=" stroke:none;fill-rule:nonzero;fill:rgb(0%,0%,0%);fill-opacity:1;" d="M 5.867188 38.324219 L 10.285156 38.324219 C 10.917969 38.324219 11.429688 37.8125 11.429688 37.179688 C 11.429688 36.550781 10.917969 36.039062 10.285156 36.039062 L 5.867188 36.039062 C 5.234375 36.039062 4.722656 36.550781 4.722656 37.179688 C 4.722656 37.8125 5.234375 38.324219 5.867188 38.324219 Z M 5.867188 38.324219 "/>
</g>
</svg>
