<?xml version="1.0" encoding="UTF-8"?>
<svg xmlns="http://www.w3.org/2000/svg" xmlns:xlink="http://www.w3.org/1999/xlink" width="48px" height="48px" viewBox="0 0 48 48" version="1.1">
<g id="surface1">
<path style=" stroke:none;fill-rule:nonzero;fill:rgb(0%,0%,0%);fill-opacity:1;" d="M 47.960938 7.90625 C 47.941406 7.625 47.949219 7.351562 47.902344 7.066406 C 47.832031 6.511719 47.707031 5.964844 47.519531 5.425781 C 46.777344 3.296875 45.117188 1.53125 43.039062 0.679688 C 42.773438 0.582031 42.511719 0.476562 42.246094 0.394531 C 41.964844 0.328125 41.71875 0.25 41.40625 0.199219 L 40.9375 0.132812 L 40.703125 0.101562 L 40.539062 0.09375 L 40.214844 0.0742188 L 40.058594 0.0625 L 39.804688 0.0625 L 37.253906 0.0742188 L 32.15625 0.0820312 C 25.359375 0.09375 18.570312 0.09375 11.792969 0.0351562 C 10.589844 0.0234375 8.695312 0.367188 8.097656 0.601562 C 6.917969 1.082031 8.449219 1.480469 10.746094 1.785156 C 18.316406 2.789062 27.496094 3.230469 36.84375 3.347656 L 38.957031 3.375 L 39.941406 3.386719 L 40.46875 3.414062 C 40.617188 3.433594 40.703125 3.464844 40.832031 3.472656 C 41.855469 3.679688 42.851562 4.273438 43.515625 5.105469 C 44.191406 5.945312 44.542969 6.988281 44.523438 8.054688 L 44.464844 12.273438 C 44.394531 17.898438 44.335938 23.527344 44.269531 29.164062 C 44.25 31.976562 44.230469 34.796875 44.210938 37.613281 L 44.199219 39.722656 C 44.210938 40.511719 44.171875 40.953125 44.054688 41.363281 C 43.820312 42.308594 43.234375 43.167969 42.433594 43.734375 C 42.03125 44.019531 41.59375 44.234375 41.125 44.371094 C 40.890625 44.4375 40.644531 44.476562 40.402344 44.515625 L 40.03125 44.535156 C 39.894531 44.546875 39.6875 44.535156 39.523438 44.546875 L 35.28125 44.566406 C 32.460938 44.59375 29.625 44.625 26.804688 44.652344 C 24 44.613281 21.207031 44.585938 18.402344 44.546875 L 11.742188 44.488281 L 8.410156 44.46875 L 7.679688 44.46875 L 7.257812 44.449219 C 7.179688 44.449219 7.140625 44.4375 7.113281 44.429688 L 7.003906 44.410156 C 6.878906 44.398438 6.683594 44.332031 6.496094 44.292969 C 6.320312 44.222656 6.136719 44.175781 5.96875 44.085938 C 5.285156 43.773438 4.699219 43.257812 4.28125 42.632812 C 3.871094 41.996094 3.625 41.273438 3.605469 40.523438 L 3.597656 33.949219 C 3.585938 29.515625 3.558594 25.078125 3.507812 20.65625 C 3.480469 18.4375 3.449219 16.230469 3.421875 14.023438 L 3.34375 10.710938 L 3.3125 9.050781 L 3.292969 8.21875 L 3.292969 8.074219 C 3.292969 8.0625 3.292969 8.0625 3.292969 8.0625 L 3.304688 7.886719 C 3.3125 7.761719 3.304688 7.585938 3.324219 7.496094 C 3.34375 7.410156 3.351562 7.3125 3.363281 7.222656 C 3.371094 7.136719 3.410156 7.007812 3.421875 6.902344 C 3.441406 6.792969 3.46875 6.6875 3.507812 6.578125 C 3.546875 6.472656 3.566406 6.363281 3.605469 6.265625 C 3.753906 5.855469 3.976562 5.484375 4.203125 5.144531 C 4.679688 4.480469 5.265625 3.960938 5.824219 3.601562 C 6.925781 2.898438 7.855469 2.683594 7.679688 2.214844 C 7.601562 2.027344 7.308594 1.8125 6.800781 1.726562 C 6.292969 1.609375 5.558594 1.628906 4.699219 1.902344 C 3.851562 2.175781 2.84375 2.722656 2.011719 3.679688 C 1.171875 4.625 0.507812 5.945312 0.371094 7.566406 L 0.34375 7.996094 L 0.332031 8.492188 L 0.3125 9.363281 L 0.265625 11.101562 C 0.246094 12.265625 0.226562 13.425781 0.207031 14.589844 C 0.167969 16.914062 0.128906 19.238281 0.0976562 21.5625 C 0.03125 26.210938 -0.0078125 30.871094 0 35.519531 L 0.0117188 38.324219 L 0.0195312 39.730469 C 0.0195312 39.976562 0.0195312 40.179688 0.03125 40.453125 C 0.0507812 40.746094 0.0390625 41.039062 0.0976562 41.332031 C 0.253906 42.503906 0.683594 43.636719 1.347656 44.613281 C 2.011719 45.582031 2.902344 46.402344 3.929688 46.980469 C 4.183594 47.125 4.457031 47.242188 4.71875 47.371094 C 4.992188 47.46875 5.265625 47.585938 5.550781 47.664062 C 5.84375 47.730469 6.097656 47.820312 6.4375 47.859375 L 6.917969 47.925781 C 7.082031 47.945312 7.160156 47.9375 7.289062 47.945312 L 7.71875 47.964844 L 8.070312 47.964844 L 8.773438 47.957031 L 10.167969 47.945312 L 15.777344 47.898438 C 23.25 47.828125 30.722656 47.75 38.191406 47.683594 L 39.453125 47.730469 C 39.667969 47.742188 39.855469 47.75 40.109375 47.75 C 40.363281 47.742188 40.617188 47.75 40.871094 47.722656 C 41.894531 47.632812 42.902344 47.320312 43.808594 46.8125 C 45.625 45.804688 47.023438 43.988281 47.492188 41.910156 C 47.753906 40.621094 47.667969 39.945312 47.714844 39.066406 L 47.773438 36.535156 C 47.804688 34.847656 47.832031 33.15625 47.863281 31.46875 C 47.960938 24.707031 48 17.929688 48 11.132812 L 48 8.257812 C 47.96875 8.160156 47.96875 8.0625 47.960938 7.90625 Z M 47.960938 7.90625 "/>
<path style=" stroke:none;fill-rule:nonzero;fill:rgb(0%,0%,0%);fill-opacity:1;" d="M 14.390625 30.851562 C 14.261719 30.96875 14.3125 31.398438 14.417969 31.632812 C 14.632812 32.09375 15.074219 32.21875 15.523438 32.199219 C 16.996094 32.152344 18.238281 31.527344 19.273438 30.667969 C 20.816406 29.367188 22.410156 28.117188 23.882812 26.738281 C 23.894531 26.75 23.914062 26.757812 23.921875 26.769531 C 24.175781 27.082031 24.429688 27.394531 24.695312 27.695312 C 26.375 29.613281 28.132812 31.4375 30.203125 32.941406 C 30.789062 33.371094 31.53125 33.480469 32.117188 32.804688 C 32.65625 32.199219 32.714844 31.417969 32.265625 30.832031 C 31.445312 29.777344 30.632812 28.703125 29.675781 27.773438 C 28.503906 26.640625 27.261719 25.578125 26.03125 24.503906 C 26.148438 24.367188 26.265625 24.238281 26.375 24.101562 C 26.6875 23.847656 27 23.59375 27.300781 23.332031 C 29.214844 21.652344 31.042969 19.894531 32.546875 17.820312 C 32.976562 17.234375 33.085938 16.492188 32.410156 15.90625 C 31.804688 15.371094 31.023438 15.3125 30.4375 15.761719 C 29.382812 16.582031 28.308594 17.390625 27.378906 18.347656 C 26.207031 19.5625 25.113281 20.832031 24.011719 22.101562 C 22.078125 19.347656 19.378906 17.273438 17.164062 14.773438 C 17.046875 14.648438 16.617188 14.695312 16.382812 14.804688 C 15.921875 15.019531 15.796875 15.457031 15.816406 15.90625 C 15.863281 17.382812 16.488281 18.621094 17.347656 19.660156 C 18.65625 21.210938 19.917969 22.8125 21.304688 24.296875 C 18.746094 26.203125 16.761719 28.742188 14.390625 30.851562 Z M 14.390625 30.851562 "/>
</g>
</svg>
