<?xml version="1.0" encoding="UTF-8"?>
<svg xmlns="http://www.w3.org/2000/svg" xmlns:xlink="http://www.w3.org/1999/xlink" width="48px" height="48px" viewBox="0 0 48 48" version="1.1">
<g id="surface1">
<path style=" stroke:none;fill-rule:nonzero;fill:rgb(0%,0%,0%);fill-opacity:1;" d="M 45.691406 7.425781 C 44.679688 3.683594 37.15625 0 24 0 C 10.84375 0 3.320312 3.683594 2.308594 7.425781 C 2.234375 7.554688 2.183594 7.695312 2.183594 7.855469 L 2.183594 40.144531 C 2.183594 40.285156 2.21875 40.421875 2.285156 40.539062 C 3.316406 44.8125 12.535156 48 24 48 C 35.4375 48 44.644531 44.824219 45.710938 40.566406 C 45.777344 40.441406 45.816406 40.300781 45.816406 40.144531 L 45.816406 7.855469 C 45.816406 7.695312 45.765625 7.554688 45.691406 7.425781 Z M 44.003906 29.660156 C 43.980469 29.765625 43.945312 29.871094 43.902344 29.976562 C 43.867188 30.0625 43.824219 30.148438 43.777344 30.234375 C 43.71875 30.34375 43.652344 30.449219 43.574219 30.558594 C 43.519531 30.640625 43.453125 30.71875 43.386719 30.800781 C 43.289062 30.914062 43.183594 31.027344 43.066406 31.140625 C 42.996094 31.210938 42.917969 31.277344 42.839844 31.347656 C 42.699219 31.472656 42.550781 31.597656 42.382812 31.71875 C 42.3125 31.773438 42.234375 31.824219 42.15625 31.875 C 41.960938 32.011719 41.753906 32.148438 41.527344 32.28125 C 41.46875 32.316406 41.40625 32.351562 41.34375 32.386719 C 41.082031 32.53125 40.8125 32.675781 40.519531 32.820312 C 40.480469 32.835938 40.441406 32.855469 40.402344 32.871094 C 40.078125 33.027344 39.734375 33.179688 39.367188 33.324219 C 39.359375 33.328125 39.347656 33.332031 39.335938 33.335938 C 37.355469 34.128906 34.820312 34.792969 31.867188 35.230469 C 31.851562 35.234375 31.835938 35.234375 31.820312 35.238281 C 31.246094 35.320312 30.65625 35.398438 30.054688 35.464844 C 29.953125 35.472656 29.851562 35.480469 29.75 35.492188 C 29.222656 35.546875 28.6875 35.597656 28.140625 35.636719 C 27.886719 35.65625 27.625 35.664062 27.367188 35.679688 C 26.953125 35.703125 26.546875 35.730469 26.121094 35.746094 C 25.429688 35.769531 24.722656 35.78125 24 35.78125 C 23.277344 35.78125 22.570312 35.769531 21.878906 35.742188 C 21.453125 35.730469 21.042969 35.699219 20.628906 35.675781 C 20.375 35.664062 20.109375 35.652344 19.859375 35.632812 C 19.308594 35.59375 18.777344 35.542969 18.246094 35.488281 C 18.148438 35.476562 18.042969 35.472656 17.945312 35.460938 C 17.339844 35.394531 16.753906 35.320312 16.179688 35.234375 C 16.164062 35.234375 16.148438 35.230469 16.132812 35.226562 C 13.179688 34.792969 10.644531 34.125 8.660156 33.335938 C 8.652344 33.332031 8.640625 33.328125 8.628906 33.324219 C 8.265625 33.175781 7.921875 33.023438 7.59375 32.871094 C 7.558594 32.851562 7.519531 32.832031 7.480469 32.816406 C 7.1875 32.675781 6.914062 32.53125 6.65625 32.382812 C 6.59375 32.347656 6.53125 32.3125 6.46875 32.277344 C 6.246094 32.144531 6.039062 32.011719 5.839844 31.875 C 5.765625 31.820312 5.6875 31.769531 5.617188 31.714844 C 5.449219 31.59375 5.300781 31.46875 5.15625 31.34375 C 5.082031 31.277344 5 31.207031 4.929688 31.140625 C 4.8125 31.027344 4.710938 30.910156 4.613281 30.796875 C 4.546875 30.714844 4.480469 30.636719 4.421875 30.554688 C 4.347656 30.449219 4.28125 30.339844 4.222656 30.234375 C 4.175781 30.148438 4.132812 30.058594 4.097656 29.972656 C 4.054688 29.867188 4.019531 29.761719 3.996094 29.65625 C 3.964844 29.519531 3.925781 29.375 3.925781 29.238281 C 3.925781 29.136719 3.9375 29.039062 3.953125 28.941406 C 3.976562 28.808594 3.964844 28.679688 3.925781 28.554688 L 3.925781 22.074219 C 3.953125 22.097656 3.980469 22.117188 4.007812 22.140625 C 4.199219 22.308594 4.390625 22.476562 4.609375 22.636719 C 7.898438 25.121094 14.472656 27.054688 24 27.054688 C 33.488281 27.054688 40.046875 25.136719 43.347656 22.667969 C 43.609375 22.472656 43.847656 22.277344 44.070312 22.074219 L 44.074219 22.074219 L 44.074219 28.554688 C 44.035156 28.679688 44.023438 28.808594 44.046875 28.941406 C 44.0625 29.039062 44.074219 29.136719 44.074219 29.238281 C 44.074219 29.375 44.035156 29.519531 44.003906 29.660156 Z M 44.074219 11.601562 L 44.074219 18.082031 C 44.035156 18.207031 44.023438 18.335938 44.046875 18.46875 C 44.0625 18.566406 44.074219 18.664062 44.074219 18.761719 C 44.074219 18.902344 44.035156 19.046875 44.003906 19.1875 C 43.980469 19.292969 43.945312 19.398438 43.902344 19.503906 C 43.867188 19.589844 43.824219 19.675781 43.777344 19.761719 C 43.71875 19.871094 43.652344 19.976562 43.574219 20.085938 C 43.519531 20.167969 43.453125 20.246094 43.386719 20.328125 C 43.289062 20.441406 43.183594 20.554688 43.066406 20.667969 C 42.996094 20.738281 42.917969 20.804688 42.839844 20.875 C 42.699219 21 42.550781 21.125 42.382812 21.246094 C 42.3125 21.300781 42.234375 21.351562 42.15625 21.402344 C 41.960938 21.539062 41.753906 21.675781 41.527344 21.808594 C 41.46875 21.84375 41.40625 21.878906 41.34375 21.914062 C 41.082031 22.058594 40.8125 22.203125 40.519531 22.347656 C 40.480469 22.363281 40.441406 22.382812 40.402344 22.398438 C 40.078125 22.554688 39.734375 22.707031 39.367188 22.851562 C 39.359375 22.855469 39.347656 22.859375 39.335938 22.863281 C 37.355469 23.65625 34.820312 24.320312 31.867188 24.757812 C 31.851562 24.761719 31.835938 24.761719 31.820312 24.765625 C 31.246094 24.847656 30.65625 24.925781 30.054688 24.992188 C 29.953125 25 29.851562 25.007812 29.75 25.019531 C 29.222656 25.074219 28.6875 25.125 28.140625 25.164062 C 27.886719 25.183594 27.625 25.191406 27.367188 25.207031 C 26.953125 25.230469 26.546875 25.257812 26.121094 25.273438 C 25.429688 25.296875 24.722656 25.308594 24 25.308594 C 23.277344 25.308594 22.570312 25.296875 21.878906 25.269531 C 21.453125 25.253906 21.042969 25.226562 20.628906 25.203125 C 20.375 25.191406 20.109375 25.179688 19.859375 25.160156 C 19.308594 25.121094 18.777344 25.070312 18.246094 25.015625 C 18.148438 25.003906 18.042969 25 17.945312 24.988281 C 17.339844 24.921875 16.753906 24.84375 16.179688 24.761719 C 16.164062 24.761719 16.148438 24.757812 16.132812 24.753906 C 13.179688 24.320312 10.644531 23.652344 8.660156 22.863281 C 8.652344 22.859375 8.640625 22.855469 8.628906 22.851562 C 8.265625 22.703125 7.921875 22.550781 7.59375 22.398438 C 7.558594 22.378906 7.519531 22.359375 7.480469 22.34375 C 7.1875 22.203125 6.914062 22.058594 6.65625 21.910156 C 6.59375 21.875 6.53125 21.839844 6.46875 21.804688 C 6.246094 21.671875 6.039062 21.539062 5.839844 21.402344 C 5.765625 21.347656 5.6875 21.296875 5.617188 21.242188 C 5.449219 21.121094 5.300781 20.996094 5.15625 20.871094 C 5.082031 20.804688 5 20.734375 4.929688 20.667969 C 4.8125 20.550781 4.710938 20.4375 4.613281 20.324219 C 4.546875 20.242188 4.480469 20.164062 4.421875 20.082031 C 4.347656 19.976562 4.28125 19.867188 4.222656 19.761719 C 4.175781 19.675781 4.132812 19.585938 4.097656 19.5 C 4.054688 19.394531 4.019531 19.289062 3.996094 19.183594 C 3.964844 19.046875 3.925781 18.902344 3.925781 18.761719 C 3.925781 18.664062 3.9375 18.566406 3.953125 18.46875 C 3.976562 18.335938 3.964844 18.207031 3.925781 18.082031 L 3.925781 11.601562 C 4.03125 11.695312 4.152344 11.789062 4.265625 11.882812 C 4.328125 11.9375 4.386719 11.988281 4.453125 12.042969 C 4.714844 12.246094 4.996094 12.449219 5.304688 12.648438 C 5.367188 12.691406 5.4375 12.730469 5.503906 12.769531 C 5.761719 12.929688 6.03125 13.085938 6.320312 13.238281 C 6.425781 13.296875 6.53125 13.351562 6.640625 13.410156 C 6.957031 13.570312 7.292969 13.730469 7.644531 13.882812 C 7.699219 13.90625 7.753906 13.933594 7.8125 13.957031 C 8.222656 14.132812 8.65625 14.296875 9.109375 14.457031 C 9.234375 14.503906 9.363281 14.542969 9.492188 14.585938 C 9.851562 14.707031 10.222656 14.824219 10.609375 14.9375 C 10.746094 14.976562 10.882812 15.019531 11.023438 15.058594 C 11.535156 15.199219 12.0625 15.332031 12.617188 15.457031 C 12.691406 15.476562 12.773438 15.488281 12.851562 15.503906 C 13.339844 15.613281 13.84375 15.710938 14.363281 15.804688 C 14.542969 15.835938 14.71875 15.863281 14.898438 15.894531 C 15.394531 15.976562 15.90625 16.050781 16.425781 16.117188 C 16.5625 16.136719 16.691406 16.15625 16.828125 16.171875 C 17.476562 16.25 18.148438 16.316406 18.835938 16.375 C 19.007812 16.390625 19.183594 16.398438 19.359375 16.410156 C 19.910156 16.453125 20.476562 16.484375 21.054688 16.511719 C 21.261719 16.519531 21.472656 16.53125 21.6875 16.539062 C 22.441406 16.5625 23.207031 16.582031 24 16.582031 C 24.792969 16.582031 25.558594 16.5625 26.3125 16.539062 C 26.527344 16.53125 26.734375 16.519531 26.945312 16.511719 C 27.523438 16.484375 28.089844 16.453125 28.640625 16.410156 C 28.816406 16.398438 28.992188 16.390625 29.164062 16.375 C 29.851562 16.316406 30.523438 16.25 31.171875 16.171875 C 31.308594 16.15625 31.4375 16.136719 31.574219 16.117188 C 32.09375 16.050781 32.605469 15.976562 33.101562 15.894531 C 33.28125 15.863281 33.457031 15.835938 33.636719 15.804688 C 34.15625 15.710938 34.660156 15.613281 35.148438 15.503906 C 35.226562 15.488281 35.308594 15.472656 35.382812 15.457031 C 35.9375 15.332031 36.464844 15.199219 36.976562 15.058594 C 37.117188 15.019531 37.253906 14.976562 37.390625 14.9375 C 37.777344 14.824219 38.148438 14.707031 38.507812 14.585938 C 38.636719 14.542969 38.765625 14.503906 38.890625 14.457031 C 39.34375 14.296875 39.78125 14.132812 40.1875 13.957031 C 40.246094 13.933594 40.300781 13.90625 40.355469 13.882812 C 40.707031 13.726562 41.042969 13.570312 41.359375 13.410156 C 41.46875 13.351562 41.578125 13.296875 41.679688 13.238281 C 41.96875 13.085938 42.238281 12.929688 42.496094 12.769531 C 42.5625 12.730469 42.632812 12.691406 42.695312 12.648438 C 43.003906 12.449219 43.285156 12.246094 43.546875 12.042969 C 43.613281 11.988281 43.671875 11.9375 43.734375 11.882812 C 43.847656 11.789062 43.96875 11.695312 44.074219 11.601562 Z M 24 1.746094 C 35.828125 1.746094 44.074219 5.195312 44.074219 8.289062 C 44.074219 11.386719 35.828125 14.835938 24 14.835938 C 12.171875 14.835938 3.925781 11.386719 3.925781 8.289062 C 3.925781 5.195312 12.171875 1.746094 24 1.746094 Z M 44.074219 39.886719 C 44.058594 39.925781 44.050781 39.964844 44.042969 40.003906 C 43.550781 43.023438 35.375 46.253906 24 46.253906 C 12.625 46.253906 4.449219 43.023438 3.957031 40.003906 C 3.949219 39.964844 3.9375 39.925781 3.925781 39.890625 L 3.925781 32.546875 C 3.953125 32.570312 3.980469 32.589844 4.007812 32.613281 C 4.199219 32.78125 4.390625 32.949219 4.609375 33.109375 C 7.898438 35.59375 14.472656 37.527344 24 37.527344 C 33.488281 37.527344 40.046875 35.609375 43.347656 33.140625 C 43.609375 32.945312 43.847656 32.75 44.070312 32.546875 L 44.074219 32.546875 Z M 44.074219 39.886719 "/>
</g>
</svg>
