<?xml version="1.0" encoding="UTF-8"?>
<svg xmlns="http://www.w3.org/2000/svg" xmlns:xlink="http://www.w3.org/1999/xlink" width="48px" height="48px" viewBox="0 0 48 48" version="1.1">
<g id="surface1">
<path style=" stroke:none;fill-rule:nonzero;fill:rgb(0%,0%,0%);fill-opacity:1;" d="M 22.9375 11 C 22.921875 10.933594 22.902344 10.867188 22.875 10.804688 C 22.851562 10.742188 22.816406 10.679688 22.78125 10.625 C 22.742188 10.566406 22.699219 10.515625 22.652344 10.464844 C 22.601562 10.417969 22.550781 10.375 22.492188 10.335938 C 22.4375 10.300781 22.375 10.265625 22.3125 10.242188 C 22.25 10.214844 22.183594 10.195312 22.117188 10.183594 C 21.777344 10.113281 21.417969 10.222656 21.175781 10.464844 C 21.128906 10.515625 21.082031 10.566406 21.046875 10.625 C 21.007812 10.679688 20.976562 10.742188 20.949219 10.804688 C 20.921875 10.867188 20.902344 10.933594 20.890625 11 C 20.875 11.066406 20.871094 11.136719 20.871094 11.203125 C 20.871094 11.480469 20.980469 11.746094 21.175781 11.941406 C 21.371094 12.136719 21.636719 12.246094 21.914062 12.246094 C 21.980469 12.246094 22.050781 12.242188 22.117188 12.226562 C 22.183594 12.214844 22.25 12.195312 22.3125 12.167969 C 22.375 12.140625 22.4375 12.109375 22.492188 12.070312 C 22.550781 12.035156 22.601562 11.988281 22.652344 11.941406 C 22.699219 11.894531 22.742188 11.839844 22.78125 11.785156 C 22.816406 11.726562 22.851562 11.667969 22.875 11.605469 C 22.902344 11.539062 22.921875 11.476562 22.933594 11.40625 C 22.949219 11.339844 22.957031 11.273438 22.957031 11.203125 C 22.957031 11.136719 22.949219 11.066406 22.9375 11 Z M 22.9375 11 "/>
<path style=" stroke:none;fill-rule:nonzero;fill:rgb(0%,0%,0%);fill-opacity:1;" d="M 46.957031 15.640625 L 46.957031 10.421875 C 46.957031 9.84375 46.488281 9.378906 45.914062 9.378906 L 44.871094 9.378906 L 44.871094 5.203125 L 46.957031 5.203125 C 47.53125 5.203125 48 4.738281 48 4.160156 C 48 3.585938 47.53125 3.117188 46.957031 3.117188 L 44.871094 3.117188 L 44.871094 2.074219 C 44.871094 1.496094 44.402344 1.03125 43.828125 1.03125 C 43.25 1.03125 42.78125 1.496094 42.78125 2.074219 L 42.78125 3.117188 L 40.695312 3.117188 C 40.121094 3.117188 39.652344 3.585938 39.652344 4.160156 C 39.652344 4.738281 40.121094 5.203125 40.695312 5.203125 L 42.78125 5.203125 L 42.78125 9.378906 L 41.738281 9.378906 C 41.164062 9.378906 40.695312 9.84375 40.695312 10.421875 L 40.695312 15.640625 L 39.359375 15.640625 L 38.976562 14.484375 C 38.113281 11.898438 35.703125 10.160156 32.976562 10.160156 L 25.078125 10.160156 C 24.503906 10.160156 24.035156 10.628906 24.035156 11.203125 C 24.035156 11.78125 24.503906 12.246094 25.078125 12.246094 L 32.976562 12.246094 C 34.804688 12.246094 36.417969 13.410156 36.996094 15.144531 L 37.421875 16.414062 C 37.679688 17.199219 38.410156 17.726562 39.238281 17.726562 L 45.914062 17.726562 L 45.914062 19.8125 L 39.074219 19.8125 C 38.433594 19.8125 37.835938 20.132812 37.480469 20.664062 C 36.695312 21.847656 35.378906 22.550781 33.957031 22.550781 L 32.347656 22.550781 C 31.878906 22.550781 31.464844 22.867188 31.339844 23.324219 L 30.421875 26.707031 C 29.878906 28.707031 28.105469 30.128906 26.058594 30.238281 L 21.945312 30.238281 C 19.894531 30.128906 18.121094 28.707031 17.578125 26.707031 L 16.660156 23.324219 C 16.535156 22.867188 16.125 22.550781 15.652344 22.550781 L 14.042969 22.550781 C 13.332031 22.550781 12.648438 22.375 12.042969 22.050781 C 12.03125 22.042969 12.019531 22.039062 12.007812 22.03125 C 11.417969 21.710938 10.90625 21.246094 10.519531 20.664062 C 10.164062 20.132812 9.566406 19.8125 8.925781 19.8125 L 2.085938 19.8125 L 2.085938 17.726562 L 8.761719 17.726562 C 9.589844 17.726562 10.320312 17.199219 10.578125 16.414062 L 11.003906 15.144531 C 11.582031 13.410156 13.195312 12.246094 15.023438 12.246094 L 18.78125 12.246094 C 19.359375 12.246094 19.824219 11.78125 19.824219 11.203125 C 19.824219 10.628906 19.359375 10.160156 18.78125 10.160156 L 15.023438 10.160156 C 12.296875 10.160156 9.886719 11.898438 9.023438 14.484375 L 8.640625 15.640625 L 7.304688 15.640625 L 7.304688 10.421875 C 7.304688 9.84375 6.835938 9.378906 6.261719 9.378906 L 5.21875 9.378906 L 5.21875 5.203125 L 7.304688 5.203125 C 7.878906 5.203125 8.347656 4.738281 8.347656 4.160156 C 8.347656 3.585938 7.878906 3.117188 7.304688 3.117188 L 5.21875 3.117188 L 5.21875 2.074219 C 5.21875 1.496094 4.75 1.03125 4.175781 1.03125 C 3.597656 1.03125 3.128906 1.496094 3.128906 2.074219 L 3.128906 3.117188 L 1.042969 3.117188 C 0.46875 3.117188 0 3.585938 0 4.160156 C 0 4.738281 0.46875 5.203125 1.042969 5.203125 L 3.128906 5.203125 L 3.128906 9.378906 L 2.085938 9.378906 C 1.511719 9.378906 1.042969 9.84375 1.042969 10.421875 L 1.042969 15.640625 C 0.46875 15.640625 0 16.105469 0 16.683594 L 0 20.855469 C 0 21.433594 0.46875 21.898438 1.042969 21.898438 L 8.832031 21.898438 C 9.230469 22.476562 9.710938 22.972656 10.253906 23.378906 L 8.402344 28.871094 C 8.367188 28.976562 8.347656 29.089844 8.347656 29.203125 L 8.347656 45.898438 C 8.347656 46.476562 8.816406 46.941406 9.390625 46.941406 C 9.96875 46.941406 10.433594 46.476562 10.433594 45.898438 L 10.433594 29.375 L 12.128906 24.34375 C 12.742188 24.539062 13.382812 24.640625 14.042969 24.640625 L 14.855469 24.640625 L 15.5625 27.253906 C 16.253906 29.808594 18.34375 31.703125 20.871094 32.203125 L 20.871094 33.378906 L 17.738281 33.378906 C 17.164062 33.378906 16.695312 33.84375 16.695312 34.421875 L 16.695312 43.8125 C 16.695312 44.390625 17.164062 44.855469 17.738281 44.855469 L 30.261719 44.855469 C 30.835938 44.855469 31.304688 44.390625 31.304688 43.8125 L 31.304688 34.421875 C 31.304688 33.84375 30.835938 33.378906 30.261719 33.378906 L 27.128906 33.378906 L 27.128906 32.203125 C 29.652344 31.703125 31.746094 29.808594 32.4375 27.253906 L 33.144531 24.640625 L 33.957031 24.640625 C 34.621094 24.640625 35.265625 24.535156 35.878906 24.339844 L 37.578125 29.375 L 37.578125 42.769531 C 37.578125 43.347656 38.042969 43.8125 38.621094 43.8125 C 39.195312 43.8125 39.664062 43.347656 39.664062 42.769531 L 39.664062 29.203125 C 39.664062 29.089844 39.644531 28.976562 39.609375 28.871094 L 37.753906 23.371094 C 38.292969 22.964844 38.773438 22.472656 39.167969 21.898438 L 46.957031 21.898438 C 47.53125 21.898438 48 21.433594 48 20.855469 L 48 16.683594 C 48 16.105469 47.53125 15.640625 46.957031 15.640625 Z M 44.871094 15.640625 L 42.78125 15.640625 L 42.78125 11.464844 L 44.871094 11.464844 Z M 3.128906 11.464844 L 5.21875 11.464844 L 5.21875 15.640625 L 3.128906 15.640625 Z M 22.957031 32.335938 L 25.042969 32.335938 L 25.042969 33.378906 L 22.957031 33.378906 Z M 29.21875 35.464844 L 29.21875 42.769531 L 18.78125 42.769531 L 18.78125 35.464844 Z M 29.21875 35.464844 "/>
<path style=" stroke:none;fill-rule:nonzero;fill:rgb(0%,0%,0%);fill-opacity:1;" d="M 38.621094 44.863281 C 38.042969 44.863281 37.578125 45.332031 37.578125 45.910156 L 37.578125 45.925781 C 37.578125 46.503906 38.042969 46.96875 38.621094 46.96875 C 39.195312 46.96875 39.664062 46.503906 39.664062 45.925781 L 39.664062 45.910156 C 39.664062 45.332031 39.195312 44.863281 38.621094 44.863281 Z M 38.621094 44.863281 "/>
<path style=" stroke:none;fill-rule:nonzero;fill:rgb(0%,0%,0%);fill-opacity:1;" d="M 26.085938 37.03125 C 24.9375 37.03125 24 37.964844 24 39.117188 C 24 40.269531 24.9375 41.203125 26.085938 41.203125 C 27.238281 41.203125 28.175781 40.269531 28.175781 39.117188 C 28.175781 37.964844 27.238281 37.03125 26.085938 37.03125 Z M 26.085938 37.03125 "/>
</g>
</svg>
