<?xml version="1.0" encoding="UTF-8"?>
<svg xmlns="http://www.w3.org/2000/svg" xmlns:xlink="http://www.w3.org/1999/xlink" width="48px" height="48px" viewBox="0 0 48 48" version="1.1">
<g id="surface1">
<path style=" stroke:none;fill-rule:nonzero;fill:rgb(0%,0%,0%);fill-opacity:1;" d="M 42.378906 13.617188 C 42.191406 8.703125 38.148438 4.757812 33.1875 4.757812 C 30.5625 4.757812 28.195312 5.867188 26.519531 7.636719 C 23.90625 5.082031 20.523438 3.511719 16.875 3.21875 L 16.011719 3.152344 L 16.007812 4.015625 C 15.980469 10.605469 10.59375 15.964844 4.003906 15.964844 C 3.09375 15.964844 2.148438 15.851562 1.195312 15.621094 L 0.355469 15.421875 L 0.21875 16.273438 C 0.0703125 17.179688 0 17.996094 0 18.769531 C 0 21.511719 0.738281 24.199219 2.121094 26.582031 C 1.839844 26.921875 1.574219 27.28125 1.339844 27.667969 C -1.296875 32.007812 0.0898438 37.683594 4.425781 40.316406 C 4.558594 40.398438 4.699219 40.433594 4.84375 40.433594 C 5.113281 40.433594 5.375 40.296875 5.527344 40.050781 C 5.757812 39.671875 5.636719 39.179688 5.257812 38.949219 C 1.675781 36.773438 0.53125 32.085938 2.707031 28.5 C 4.464844 25.609375 7.867188 24.25 11.105469 25.089844 C 11.472656 26.265625 12.171875 27.3125 13.144531 28.117188 C 13.292969 28.238281 13.472656 28.296875 13.652344 28.296875 C 13.882812 28.296875 14.113281 28.199219 14.269531 28.007812 C 14.550781 27.664062 14.503906 27.160156 14.160156 26.878906 C 13.476562 26.316406 12.980469 25.589844 12.691406 24.773438 L 12.566406 24.207031 C 12.246094 22.753906 12.601562 21.261719 13.542969 20.117188 C 14.378906 19.109375 15.550781 18.515625 16.789062 18.394531 C 17.15625 18.363281 17.527344 18.363281 17.898438 18.417969 C 17.671875 19.375 17.664062 20.378906 17.894531 21.363281 C 17.980469 21.730469 18.3125 21.980469 18.675781 21.980469 C 18.734375 21.980469 18.796875 21.972656 18.859375 21.957031 C 19.289062 21.855469 19.554688 21.425781 19.453125 20.996094 C 19.273438 20.226562 19.285156 19.441406 19.476562 18.695312 L 19.703125 18.128906 C 20.199219 16.882812 21.183594 15.914062 22.410156 15.429688 C 22.523438 15.386719 22.636719 15.347656 22.753906 15.3125 C 22.855469 15.28125 22.960938 15.246094 23.066406 15.21875 C 23.601562 15.09375 24.15625 15.066406 24.71875 15.128906 C 25.398438 15.214844 26.058594 15.441406 26.65625 15.8125 C 27.75 16.488281 28.511719 17.546875 28.804688 18.796875 C 28.90625 19.226562 29.335938 19.492188 29.769531 19.390625 C 30.199219 19.292969 30.464844 18.859375 30.363281 18.429688 C 29.972656 16.765625 28.957031 15.351562 27.5 14.449219 C 26.914062 14.085938 26.285156 13.828125 25.628906 13.671875 C 25.691406 12.089844 26.230469 10.589844 27.210938 9.324219 L 27.578125 8.847656 C 28.96875 7.324219 30.964844 6.359375 33.1875 6.359375 C 37.265625 6.359375 40.59375 9.589844 40.773438 13.625 C 37.628906 14.027344 35.1875 16.71875 35.1875 19.96875 C 35.1875 20.414062 35.546875 20.769531 35.988281 20.769531 C 36.429688 20.769531 36.789062 20.414062 36.789062 19.96875 C 36.789062 17.320312 38.945312 15.167969 41.59375 15.167969 C 44.242188 15.167969 46.398438 17.320312 46.398438 19.96875 C 46.398438 20.414062 46.753906 20.769531 47.199219 20.769531 C 47.640625 20.769531 48 20.414062 48 19.96875 C 48 16.703125 45.542969 14.007812 42.378906 13.617188 Z M 1.683594 17.359375 C 2.46875 17.496094 3.242188 17.566406 4.003906 17.566406 C 11.175781 17.566406 17.085938 11.964844 17.578125 4.90625 C 20.585938 5.332031 23.359375 6.71875 25.519531 8.882812 C 24.632812 10.214844 24.09375 11.796875 24.003906 13.492188 C 23.558594 13.503906 23.109375 13.554688 22.664062 13.660156 C 21 14.050781 19.585938 15.070312 18.683594 16.523438 C 18.609375 16.640625 18.546875 16.765625 18.484375 16.886719 C 18.417969 16.875 18.351562 16.871094 18.289062 16.859375 C 18.203125 16.847656 18.121094 16.839844 18.035156 16.828125 C 17.832031 16.800781 17.632812 16.785156 17.429688 16.777344 C 17.289062 16.773438 17.148438 16.773438 17.011719 16.777344 C 16.871094 16.785156 16.734375 16.792969 16.597656 16.804688 C 16.410156 16.824219 16.226562 16.847656 16.046875 16.882812 C 15.964844 16.898438 15.886719 16.917969 15.808594 16.933594 C 15.582031 16.984375 15.355469 17.046875 15.136719 17.121094 C 15.117188 17.128906 15.101562 17.136719 15.082031 17.144531 C 14.011719 17.523438 13.03125 18.175781 12.273438 19.101562 C 11.285156 20.296875 10.78125 21.78125 10.816406 23.316406 C 10.285156 23.222656 9.746094 23.171875 9.207031 23.171875 C 6.996094 23.171875 4.921875 23.941406 3.261719 25.359375 C 2.171875 23.328125 1.601562 21.066406 1.601562 18.769531 C 1.601562 18.320312 1.628906 17.855469 1.683594 17.359375 Z M 1.683594 17.359375 "/>
<path style=" stroke:none;fill-rule:nonzero;fill:rgb(0%,0%,0%);fill-opacity:1;" d="M 25.855469 36.277344 L 23.453125 38.679688 C 23.140625 38.992188 23.140625 39.5 23.453125 39.8125 C 23.609375 39.96875 23.8125 40.046875 24.019531 40.046875 C 24.222656 40.046875 24.429688 39.96875 24.585938 39.8125 L 26.984375 37.410156 C 27.300781 37.097656 27.300781 36.589844 26.984375 36.277344 C 26.671875 35.964844 26.167969 35.964844 25.855469 36.277344 Z M 25.855469 36.277344 "/>
<path style=" stroke:none;fill-rule:nonzero;fill:rgb(0%,0%,0%);fill-opacity:1;" d="M 21.050781 41.082031 L 18.648438 43.484375 C 18.335938 43.796875 18.335938 44.300781 18.648438 44.613281 C 18.804688 44.769531 19.011719 44.847656 19.214844 44.847656 C 19.417969 44.847656 19.625 44.769531 19.78125 44.613281 L 22.183594 42.214844 C 22.496094 41.898438 22.496094 41.394531 22.183594 41.082031 C 21.871094 40.769531 21.363281 40.769531 21.050781 41.082031 Z M 21.050781 41.082031 "/>
<path style=" stroke:none;fill-rule:nonzero;fill:rgb(0%,0%,0%);fill-opacity:1;" d="M 37.0625 31.472656 L 34.660156 33.875 C 34.347656 34.1875 34.347656 34.695312 34.660156 35.007812 C 34.816406 35.164062 35.023438 35.242188 35.226562 35.242188 C 35.433594 35.242188 35.636719 35.164062 35.792969 35.007812 L 38.195312 32.605469 C 38.507812 32.292969 38.507812 31.785156 38.195312 31.472656 C 37.882812 31.160156 37.375 31.160156 37.0625 31.472656 Z M 37.0625 31.472656 "/>
<path style=" stroke:none;fill-rule:nonzero;fill:rgb(0%,0%,0%);fill-opacity:1;" d="M 32.257812 36.277344 L 29.855469 38.679688 C 29.542969 38.992188 29.542969 39.5 29.855469 39.8125 C 30.011719 39.96875 30.21875 40.046875 30.421875 40.046875 C 30.628906 40.046875 30.832031 39.96875 30.988281 39.8125 L 33.390625 37.410156 C 33.703125 37.097656 33.703125 36.589844 33.390625 36.277344 C 33.078125 35.964844 32.570312 35.964844 32.257812 36.277344 Z M 32.257812 36.277344 "/>
<path style=" stroke:none;fill-rule:nonzero;fill:rgb(0%,0%,0%);fill-opacity:1;" d="M 25.386719 31.472656 C 25.070312 31.160156 24.566406 31.160156 24.253906 31.472656 L 21.851562 33.875 C 21.539062 34.1875 21.539062 34.695312 21.851562 35.007812 C 22.007812 35.164062 22.210938 35.242188 22.417969 35.242188 C 22.621094 35.242188 22.828125 35.164062 22.984375 35.007812 L 25.386719 32.605469 C 25.699219 32.292969 25.699219 31.785156 25.386719 31.472656 Z M 25.386719 31.472656 "/>
<path style=" stroke:none;fill-rule:nonzero;fill:rgb(0%,0%,0%);fill-opacity:1;" d="M 31.789062 31.472656 C 31.476562 31.160156 30.972656 31.160156 30.65625 31.472656 L 28.257812 33.875 C 27.941406 34.1875 27.941406 34.695312 28.257812 35.007812 C 28.414062 35.164062 28.617188 35.242188 28.820312 35.242188 C 29.027344 35.242188 29.230469 35.164062 29.386719 35.007812 L 31.789062 32.605469 C 32.101562 32.292969 32.101562 31.785156 31.789062 31.472656 Z M 31.789062 31.472656 "/>
<path style=" stroke:none;fill-rule:nonzero;fill:rgb(0%,0%,0%);fill-opacity:1;" d="M 20.582031 36.277344 C 20.269531 35.964844 19.761719 35.964844 19.449219 36.277344 L 17.046875 38.679688 C 16.734375 38.992188 16.734375 39.5 17.046875 39.8125 C 17.203125 39.96875 17.410156 40.046875 17.613281 40.046875 C 17.820312 40.046875 18.023438 39.96875 18.179688 39.8125 L 20.582031 37.410156 C 20.894531 37.097656 20.894531 36.589844 20.582031 36.277344 Z M 20.582031 36.277344 "/>
</g>
</svg>
